<svg xmlns="http://www.w3.org/2000/svg" width="26" height="30" viewBox="0 0 26 30">
  <path id="Icon_awesome-trash-alt" data-name="Icon awesome-trash-alt" d="M2,27a3.158,3.158,0,0,0,3,3H21a3.156,3.156,0,0,0,3-3V8H2ZM18,12a1,1,0,0,1,2,0V25a1,1,0,0,1-2,0Zm-6,0a1,1,0,0,1,2,0V25a1,1,0,0,1-2,0ZM7,12c0-.513-.513-1,0-1a1.055,1.055,0,0,1,1,1V25a1.055,1.055,0,0,1-1,1c-.513,0,0-.487,0-1ZM25,2H18V1a3.107,3.107,0,0,0-2-1H10A3.071,3.071,0,0,0,8,1V2H1A1.053,1.053,0,0,0,0,3V5A1.053,1.053,0,0,0,1,6H25a1.055,1.055,0,0,0,1-1V3A1.053,1.053,0,0,0,25,2Z" fill="#6b79fa"/>
</svg>
