<svg xmlns="http://www.w3.org/2000/svg" width="22" height="24" viewBox="0 0 22 24">
  <g id="discord" transform="translate(-3 -2)">
    <rect id="Прямоугольник_217" data-name="Прямоугольник 217" width="22" height="21.256" rx="3" transform="translate(3 2)" fill="#3482da"/>
    <path id="Контур_59" data-name="Контур 59" d="M3,25v.838a2.537,2.537,0,0,0,.721,1.781,2.439,2.439,0,0,0,1.746.735H21.921l2.468,2.516v-.838l-2.468-2.516H5.468a2.439,2.439,0,0,1-1.746-.735A2.537,2.537,0,0,1,3,25Z" transform="translate(0 -4.872)" fill="#6b4a4a" opacity="0.2"/>
    <path id="Контур_60" data-name="Контур 60" d="M27.872,29.872,22,24h5.872Z" transform="translate(-3.483 -4.711)" fill="#3482da" fill-rule="evenodd"/>
    <path id="Контур_61" data-name="Контур 61" d="M5.468,2a2.439,2.439,0,0,0-1.746.735A2.537,2.537,0,0,0,3,4.516v.838a2.537,2.537,0,0,1,.721-1.781,2.439,2.439,0,0,1,1.746-.735H21.921a2.439,2.439,0,0,1,1.746.735,2.537,2.537,0,0,1,.721,1.781V4.516a2.537,2.537,0,0,0-.721-1.781A2.439,2.439,0,0,0,21.921,2Z" transform="translate(0)" fill="#fff" opacity="0.2"/>
    <path id="Контур_62" data-name="Контур 62" d="M22,25l5.872,5.872v-.84L22.838,25Z" transform="translate(-3.483 -4.872)" fill-rule="evenodd" opacity="0.2"/>
    <path id="Контур_63" data-name="Контур 63" d="M12.851,9a5.834,5.834,0,0,0-3.325,1.257C7.815,11.55,7,14.225,7,18.079A7.324,7.324,0,0,0,11.439,19.9s.44-.532.8-1a3.482,3.482,0,0,1-2.08-1.834,6.911,6.911,0,0,0,3.777,1.147,9.783,9.783,0,0,0,4.592-1.148,3.484,3.484,0,0,1-2.08,1.84c.356.46.8,1,.8,1a7.324,7.324,0,0,0,4.439-1.825c0-3.854-.815-6.531-2.526-7.822A5.834,5.834,0,0,0,15.826,9l-.121.144a5.991,5.991,0,0,1,3.112,1.993s-.262-.144-.7-.338a10.062,10.062,0,0,0-4.187-.958,6.875,6.875,0,0,0-3.371.958c-.44.193-.7.338-.7.338a5.991,5.991,0,0,1,3.112-1.993ZM12.3,14.032a1.259,1.259,0,1,1-1.223,1.258A1.241,1.241,0,0,1,12.3,14.032Zm4.077,0a1.259,1.259,0,1,1-1.223,1.258,1.264,1.264,0,0,1,.355-.893A1.194,1.194,0,0,1,16.377,14.032Z" transform="translate(-0.644 -1.608)" opacity="0.2"/>
    <path id="Контур_64" data-name="Контур 64" d="M12.851,8A5.834,5.834,0,0,0,9.526,9.257C7.815,10.55,7,13.225,7,17.079A7.324,7.324,0,0,0,11.439,18.9s.44-.532.8-1a3.483,3.483,0,0,1-2.08-1.834,6.911,6.911,0,0,0,3.777,1.147,9.783,9.783,0,0,0,4.592-1.148,3.483,3.483,0,0,1-2.08,1.84c.356.46.8,1,.8,1a7.324,7.324,0,0,0,4.439-1.825c0-3.854-.815-6.531-2.526-7.822A5.834,5.834,0,0,0,15.826,8l-.121.144a5.991,5.991,0,0,1,3.112,1.993s-.262-.144-.7-.338a10.062,10.062,0,0,0-4.187-.958,6.875,6.875,0,0,0-3.371.958c-.44.193-.7.338-.7.338a5.991,5.991,0,0,1,3.112-1.993ZM12.3,13.032a1.259,1.259,0,1,1-1.223,1.258A1.241,1.241,0,0,1,12.3,13.032Zm4.077,0a1.259,1.259,0,1,1-1.223,1.258,1.264,1.264,0,0,1,.355-.893,1.194,1.194,0,0,1,.868-.365Z" transform="translate(-0.644 -1.378)" fill="#fff"/>
  </g>
</svg>
