<svg xmlns="http://www.w3.org/2000/svg" width="24" height="24" viewBox="0 0 24 24">
  <path id="steam" d="M7.909,3A4.916,4.916,0,0,0,3,7.909v7.3l7.336,3.665a.542.542,0,0,1,.241.731.536.536,0,0,1-.486.3.507.507,0,0,1-.245-.06L3,16.429v5.662A4.916,4.916,0,0,0,7.909,27H22.091A4.916,4.916,0,0,0,27,22.091V7.909A4.916,4.916,0,0,0,22.091,3ZM18.545,6.273a5.182,5.182,0,0,1,0,10.364,4.992,4.992,0,0,1-1.729-.3l-2.591,1.953a4.021,4.021,0,0,1,.229,1.348,4.091,4.091,0,0,1-8.182,0c0-.12.005-.235.011-.349L9.36,20.825A1.634,1.634,0,1,0,10.822,17.9L7.849,16.413a4.046,4.046,0,0,1,2.514-.867,4.088,4.088,0,0,1,1.429.257l1.882-2.575a5.186,5.186,0,0,1,4.871-6.955Zm0,2.182a3,3,0,1,0,3,3A3.008,3.008,0,0,0,18.545,8.455Zm0,1.091a1.909,1.909,0,1,1-1.909,1.909A1.9,1.9,0,0,1,18.545,9.545Z" transform="translate(-3 -3)" fill="#3482da"/>
</svg>
