<svg xmlns="http://www.w3.org/2000/svg" width="34.828" height="34.828" viewBox="0 0 34.828 34.828">
  <g id="vive-off" transform="translate(-0.086 -0.086)">
    <path id="Контур_246" data-name="Контур 246" d="M26.14,26.215A14.672,14.672,0,0,1,17.5,29.2C7.319,29.2,1.5,17.6,1.5,17.6A26.788,26.788,0,0,1,8.86,8.989m5.586-2.64A13.3,13.3,0,0,1,17.5,6c10.181,0,16,11.607,16,11.607a26.842,26.842,0,0,1-3.141,4.628m-9.778-1.553a4.36,4.36,0,1,1-6.172-6.152" transform="translate(0 -0.106)" fill="none" stroke="#6b79fa" stroke-linecap="round" stroke-linejoin="round" stroke-width="2"/>
    <path id="Контур_247" data-name="Контур 247" d="M1.5,1.5l32,32" transform="translate(0 0)" fill="none" stroke="#6b79fa" stroke-linecap="round" stroke-linejoin="round" stroke-width="2"/>
  </g>
</svg>
