<svg xmlns="http://www.w3.org/2000/svg" width="32" height="18" viewBox="0 0 32 18">
  <g id="wk" transform="translate(-13.729 -28.665)">
    <path id="Контур_58" data-name="Контур 58" d="M44.913,46.071c-1.115.668-5.65.867-6.747.1a14.554,14.554,0,0,1-1.676-1.439,12.077,12.077,0,0,1-1.095-.9c-.256-.309-.432-.675-.7-.979-.456-.513-1.157-.949-1.715-.322-.837.937.132,2.791-.98,3.494a1.883,1.883,0,0,1-1.219.271l-1.035.046a13.492,13.492,0,0,1-2.262-.1,9.558,9.558,0,0,1-2.105-.833,9.986,9.986,0,0,1-3.552-2.387C19.214,40.14,15.7,36.17,14.341,32.542c-.28-.746-1.02-2.225-.318-2.861.954-.663,5.641-.85,6.369.176a8.886,8.886,0,0,1,.694,1.5,7.094,7.094,0,0,0,.812,1.665,10.374,10.374,0,0,1,.909,1.435A15.083,15.083,0,0,0,23.8,36.1c.26.351.946,1.064,1.379,1.117,1.058.13.992-2.328.914-2.928a11.119,11.119,0,0,1-.075-1.778,2.7,2.7,0,0,0-.245-1.614c-.5-.666-1.63-.167-1.715-1.063.186-.254.147-.48,1.388-.87a5.366,5.366,0,0,1,2.252-.248,17.182,17.182,0,0,1,3.977.167c1.211.39,1.024,2.036.98,3.024-.054,1.348,0,2.662,0,4.03,0,.623-.027,1.228.765,1.178.745-.048.821-.646,1.175-1.141.49-.689.948-1.387,1.451-2.074.679-.927.882-1.97,1.52-2.919.229-.341.425-1.083.777-1.351.267-.2.772-.117,1.094-.117H40.2c.587.007,1.184.015,1.787.035q1.345-.083,2.695-.035c3.712.5-4.666,8.094-4.23,9.449.3.937,2.213,1.984,2.9,2.751C44.287,42.725,47.106,44.758,44.913,46.071Z" transform="translate(0 0)" fill="#3482da"/>
  </g>
</svg>
